<svg width="16" height="16" viewBox="0 0 16 16" fill="none" xmlns="http://www.w3.org/2000/svg">
<g id="fi-sr-infinity" clip-path="url(#clip0_0_150)">
<path id="Vector" d="M12 4C10.0187 4 8.70467 5.48467 8 6.588C7.29533 5.48467 5.98133 4 4 4C2.93913 4 1.92172 4.42143 1.17157 5.17157C0.421427 5.92172 0 6.93913 0 8C0 9.06087 0.421427 10.0783 1.17157 10.8284C1.92172 11.5786 2.93913 12 4 12C5.98133 12 7.29533 10.5153 8 9.412C8.70467 10.5153 10.0187 12 12 12C13.0609 12 14.0783 11.5786 14.8284 10.8284C15.5786 10.0783 16 9.06087 16 8C16 6.93913 15.5786 5.92172 14.8284 5.17157C14.0783 4.42143 13.0609 4 12 4ZM4 10.6667C3.29276 10.6667 2.61448 10.3857 2.11438 9.88562C1.61428 9.38552 1.33333 8.70724 1.33333 8C1.33333 7.29276 1.61428 6.61448 2.11438 6.11438C2.61448 5.61428 3.29276 5.33333 4 5.33333C5.79533 5.33333 6.92133 7.29667 7.26667 8C6.924 8.70667 5.80533 10.6667 4 10.6667ZM12 10.6667C10.2047 10.6667 9.07867 8.70333 8.73333 8C9.07667 7.29467 10.1953 5.33333 12 5.33333C12.7072 5.33333 13.3855 5.61428 13.8856 6.11438C14.3857 6.61448 14.6667 7.29276 14.6667 8C14.6667 8.70724 14.3857 9.38552 13.8856 9.88562C13.3855 10.3857 12.7072 10.6667 12 10.6667Z" fill="white"/>
</g>
<defs>
<clipPath id="clip0_0_150">
<rect width="16" height="16" fill="white"/>
</clipPath>
</defs>
</svg>
