<svg width="90" height="19" viewBox="0 0 90 19" fill="none" xmlns="http://www.w3.org/2000/svg">
  <path d="M4.16198 9.21797L2.13981 11.2093L0.119385 9.21797L2.13981 7.22662L4.16198 9.21797ZM9.06447 4.38258L12.5268 7.79681L14.5472 5.80546L9.06447 0.401611L3.58172 5.80546L5.60214 7.79681L9.06447 4.38258ZM15.9909 7.22662L13.9705 9.21797L15.9909 11.2093L18.0096 9.21797L15.9909 7.22662ZM9.06447 14.0534L5.60214 10.6408L3.58172 12.6305L9.06447 18.0343L14.5472 12.6305L12.5268 10.6408L9.06447 14.0534ZM9.06447 11.2093L11.0849 9.21797L9.06447 7.22662L7.04405 9.21797L9.06447 11.2093ZM30.3873 11.4005V11.373C30.3873 10.0741 29.6881 9.42468 28.5503 8.99747C29.2495 8.60988 29.8402 8.0018 29.8402 6.91138V6.88382C29.8402 5.36447 28.6063 4.38258 26.6016 4.38258H22.0504V14.0534H26.7169C28.9314 14.0534 30.3908 13.1697 30.3908 11.4005H30.3873ZM27.6957 7.26624C27.6957 7.98457 27.0927 8.28948 26.1402 8.28948H24.153V6.24817H26.2835C27.1941 6.24817 27.6992 6.60648 27.6992 7.24212L27.6957 7.26624ZM28.2427 11.1352C28.2427 11.8536 27.6677 12.1843 26.7134 12.1843H24.153V10.0603H26.647C27.7551 10.0603 28.2462 10.4617 28.2462 11.1111L28.2427 11.1352ZM34.9227 14.0534V4.38258H32.7572V14.0534H34.9227ZM46.5262 14.0534V4.38258H44.3886V10.3377L39.792 4.38258H37.8013V14.0534H39.9318V7.90533L44.6823 14.0534H46.5262ZM58.4826 14.0534L54.2705 4.31367H52.2798L48.0764 14.0534H50.2769L51.177 11.8846H55.3262L56.2228 14.0534H58.4826ZM54.5589 10.0052H51.9442L53.2481 6.87004L54.5589 10.0052ZM68.7718 14.0534V4.38258H66.6342V10.3377L62.0359 4.38258H60.0469V14.0534H62.1757V7.90533L66.9279 14.0534H68.7718ZM79.9138 12.4927L78.5418 11.1249C77.771 11.814 77.0842 12.2567 75.9621 12.2567C74.2807 12.2567 73.1167 10.8786 73.1167 9.21797V9.1904C73.1167 7.53325 74.3087 6.17927 75.9621 6.17927C76.9426 6.17927 77.7099 6.5927 78.4719 7.26969L79.8404 5.709C78.9298 4.82529 77.8235 4.21721 75.9726 4.21721C72.9594 4.21721 70.8568 6.46867 70.8568 9.2128V9.24036C70.8568 12.0172 73.0014 14.2136 75.8887 14.2136C77.778 14.2187 78.8983 13.5555 79.9068 12.4927H79.9138ZM89.1245 14.0534V12.1585H83.7903V10.1241H88.4167V8.22918H83.7903V6.27574H89.0476V4.38086H81.6458V14.0516L89.1245 14.0534Z" fill="#B6B3EB"/>
</svg>