<svg width="260" height="538" viewBox="0 0 260 538" fill="none" xmlns="http://www.w3.org/2000/svg">
  <g filter="url(#filter0_i_0_120)">
    <path fill-rule="evenodd" clip-rule="evenodd" d="M4.70888 20.5228C0.80291 28.1887 0.80291 38.2239 0.80291 58.2943L0.802911 479.69C0.802911 499.761 0.802911 509.796 4.70888 517.462C8.14468 524.205 13.627 529.687 20.3701 533.123C28.036 537.029 38.0713 537.029 58.1417 537.029L201.71 537.029C221.781 537.029 231.816 537.029 239.482 533.123C246.225 529.687 251.707 524.205 255.143 517.462C259.049 509.796 259.049 499.761 259.049 479.69L259.049 58.2944C259.049 38.2239 259.049 28.1887 255.143 20.5228C251.707 13.7797 246.225 8.29733 239.482 4.86154C231.816 0.955567 221.781 0.955567 201.71 0.955567L58.1417 0.955566C38.0713 0.955566 28.036 0.955566 20.3701 4.86154C13.627 8.29733 8.14468 13.7797 4.70888 20.5228ZM10.7781 51.4965C10.7781 37.4265 10.7781 30.3915 13.5163 25.0174C15.9249 20.2903 19.7682 16.447 24.4953 14.0384C29.8693 11.3002 36.9044 11.3002 50.9744 11.3002L63.3223 11.3002C63.9338 11.3002 64.2396 11.3002 64.4845 11.3893C64.895 11.5387 65.2183 11.8621 65.3677 12.2726C65.4569 12.5174 65.4569 12.8232 65.4569 13.4348C65.4569 18.3275 65.4569 20.7738 66.1698 22.7327C67.3651 26.0166 69.9519 28.6034 73.2358 29.7987C75.1947 30.5117 77.641 30.5117 82.5337 30.5117L177.318 30.5117C182.211 30.5117 184.657 30.5117 186.616 29.7987C189.9 28.6034 192.487 26.0166 193.682 22.7327C194.395 20.7738 194.395 18.3275 194.395 13.4348C194.395 12.8232 194.395 12.5174 194.484 12.2726C194.634 11.8621 194.957 11.5387 195.368 11.3893C195.613 11.3002 195.918 11.3002 196.53 11.3002L208.878 11.3002C222.948 11.3002 229.983 11.3002 235.357 14.0384C240.084 16.447 243.927 20.2903 246.336 25.0174C249.074 30.3915 249.074 37.4265 249.074 51.4965L249.074 486.488C249.074 500.558 249.074 507.593 246.336 512.967C243.927 517.694 240.084 521.538 235.357 523.946C229.983 526.685 222.948 526.685 208.878 526.685L50.9744 526.685C36.9044 526.685 29.8693 526.685 24.4953 523.946C19.7682 521.538 15.9249 517.694 13.5163 512.967C10.7781 507.593 10.7781 500.558 10.7781 486.488L10.7781 51.4965Z" fill="#E9E8FF"/>
  </g>
  <defs>
    <filter id="filter0_i_0_120" x="0.80291" y="0.955566" width="258.246" height="537.517" filterUnits="userSpaceOnUse" color-interpolation-filters="sRGB">
      <feFlood flood-opacity="0" result="BackgroundImageFix"/>
      <feBlend mode="normal" in="SourceGraphic" in2="BackgroundImageFix" result="shape"/>
      <feColorMatrix in="SourceAlpha" type="matrix" values="0 0 0 0 0 0 0 0 0 0 0 0 0 0 0 0 0 0 127 0" result="hardAlpha"/>
      <feOffset dy="1.44331"/>
      <feGaussianBlur stdDeviation="1.44331"/>
      <feComposite in2="hardAlpha" operator="arithmetic" k2="-1" k3="1"/>
      <feColorMatrix type="matrix" values="0 0 0 0 0 0 0 0 0 0 0 0 0 0 0 0 0 0 0.15 0"/>
      <feBlend mode="normal" in2="shape" result="effect1_innerShadow_0_120"/>
    </filter>
  </defs>
</svg>