<svg width="17" height="19" viewBox="0 0 17 19" fill="none" xmlns="http://www.w3.org/2000/svg">
  <path d="M10.9517 5.26189L10.6553 4.72066C10.2272 3.94077 9.50725 3.36258 8.65334 3.11297C7.79943 2.86335 6.88136 2.96272 6.10063 3.38925L5.55941 3.68563L4.92341 2.52421L3.76198 3.16021L4.39799 4.32164L3.85676 4.61802C3.15876 5.00122 2.61978 5.62016 2.33617 6.36421C2.05255 7.10827 2.04279 7.92893 2.30862 8.67952C2.57445 9.43011 3.09854 10.0617 3.78723 10.4614C4.47592 10.8611 5.28431 11.0029 6.0679 10.8614L7.80698 10.5469L10.122 14.7745L9.58081 15.0708C9.10819 15.329 8.55242 15.3892 8.03549 15.2381C7.51856 15.087 7.08269 14.737 6.82356 14.2648L6.52718 13.7236L5.36575 14.3596L5.66213 14.9008C6.09021 15.6807 6.8102 16.2589 7.66412 16.5085C8.51803 16.7582 9.43609 16.6588 10.2168 16.2323L10.758 15.9359L11.394 17.0973L12.5555 16.4613L11.9195 15.2999L12.4607 15.0035C13.1587 14.6203 13.6977 14.0013 13.9813 13.2573C14.2649 12.5132 14.2747 11.6926 14.0088 10.942C13.743 10.1914 13.2189 9.5598 12.5302 9.1601C11.8415 8.76039 11.0331 8.61864 10.2496 8.76016L8.51048 9.07464L6.19542 4.84706L6.73664 4.55068C7.20927 4.29246 7.76503 4.23231 8.28196 4.38341C8.7989 4.53452 9.23476 4.88455 9.4939 5.35667L9.79028 5.89789L10.9517 5.26189ZM10.4855 10.0622C10.9601 9.97595 11.4498 10.0614 11.8672 10.3033C12.2845 10.5452 12.6021 10.9277 12.7632 11.3824C12.9243 11.837 12.9183 12.3342 12.7464 12.7848C12.5744 13.2355 12.2477 13.6103 11.8247 13.8421L11.2835 14.1384L9.18051 10.2982L10.4855 10.0622ZM7.13695 9.32331L5.83198 9.55934C5.35739 9.64556 4.86761 9.56008 4.45029 9.31819C4.03297 9.07631 3.71534 8.6938 3.55426 8.23914C3.39317 7.78448 3.39914 7.28733 3.57109 6.83667C3.74305 6.386 4.06976 6.01124 4.49277 5.77944L5.03399 5.48306L7.13695 9.32331Z" fill="white" fill-opacity="0.1"/>
</svg>