<svg width="23" height="23" viewBox="0 0 23 23" fill="none" xmlns="http://www.w3.org/2000/svg">
  <g clip-path="url(#clip0_1_29058)">
    <path d="M18.2208 11.08C18.1391 12.07 17.8109 13.0239 17.2661 13.8545C16.7213 14.6852 15.9773 15.3663 15.1018 15.8358C14.2263 16.3052 13.2472 16.548 12.2538 16.542C11.2604 16.5361 10.2843 16.2815 9.41454 15.8017L14.0646 12.5734C14.281 12.4232 14.4288 12.1932 14.4756 11.934C14.5224 11.6748 14.4642 11.4076 14.314 11.1913C14.1638 10.9749 13.9338 10.8271 13.6746 10.7803C13.4154 10.7335 13.1482 10.7916 12.9319 10.9418L7.79724 14.5065C7.5036 14.1749 7.25013 13.8098 7.04209 13.4188L12.1767 9.85408C12.3931 9.70388 12.5409 9.47387 12.5877 9.21466C12.6345 8.95546 12.5764 8.68829 12.4262 8.47192C12.276 8.25556 12.046 8.10773 11.7868 8.06095C11.5275 8.01417 11.2604 8.07228 11.044 8.22248L6.39396 11.4507C6.2484 10.4681 6.35113 9.46457 6.6928 8.53177C7.03446 7.59898 7.60419 6.76654 8.35003 6.11036C9.09587 5.45419 9.9941 4.99515 10.9628 4.77509C11.9315 4.55503 12.9399 4.58097 13.8961 4.85052C14.1497 4.92178 14.4212 4.88937 14.6509 4.76042C14.8806 4.63148 15.0497 4.41656 15.121 4.16295C15.1922 3.90934 15.1598 3.63781 15.0309 3.40809C14.9019 3.17837 14.687 3.00929 14.4334 2.93803C13.0802 2.55688 11.65 2.54198 10.2891 2.89485C8.92823 3.24772 7.68548 3.9557 6.68796 4.94639C5.69043 5.93707 4.97393 7.17492 4.61171 8.53335C4.24949 9.89177 4.25456 11.322 4.62639 12.6778L3.97375 13.1309C3.75739 13.2811 3.60956 13.5112 3.56278 13.7704C3.516 14.0296 3.57411 14.2967 3.72431 14.5131C3.87452 14.7295 4.10453 14.8773 4.36373 14.9241C4.62294 14.9709 4.89011 14.9127 5.10647 14.7625L5.40614 14.5545C5.51589 14.7451 5.62836 14.9338 5.75598 15.1176C5.8836 15.3014 6.02108 15.4728 6.16129 15.6422L5.86162 15.8503C5.64526 16.0005 5.49742 16.2305 5.45065 16.4897C5.40387 16.7489 5.46197 17.0161 5.61218 17.2324C5.76239 17.4488 5.99239 17.5966 6.2516 17.6434C6.5108 17.6902 6.77798 17.6321 6.99434 17.4819L7.64698 17.0288C8.78729 17.8511 10.1255 18.3558 11.5249 18.4913C12.9242 18.6268 14.3345 18.3881 15.6113 17.7999C16.8882 17.2116 17.9859 16.2947 18.7923 15.143C19.5986 13.9913 20.0845 12.6461 20.2005 11.245C20.2224 10.9825 20.1391 10.7221 19.9689 10.521C19.7988 10.3198 19.5557 10.1946 19.2932 10.1727C19.1632 10.1618 19.0323 10.1767 18.9081 10.2164C18.7839 10.2562 18.6687 10.32 18.5691 10.4042C18.368 10.5744 18.2427 10.8174 18.2208 11.08Z" fill="white" fill-opacity="0.1"/>
  </g>
  <defs>
    <clipPath id="clip0_1_29058">
      <rect width="15.89" height="15.89" fill="white" transform="translate(0.137451 9.34653) rotate(-34.7699)"/>
    </clipPath>
  </defs>
</svg>