<svg width="41" height="41" viewBox="0 0 41 41" fill="none" xmlns="http://www.w3.org/2000/svg">
  <g clip-path="url(#clip0_0_112)">
    <path d="M0 0V39.8843C0 40.1786 0.119226 40.466 0.326769 40.6737C0.536203 40.8814 0.825122 41 1.12098 41H40.3496V38.7687H2.24196V0H0Z" fill="white" fill-opacity="0.1"/>
    <path d="M39.3119 14.1097C40.2443 14.1097 41 13.3579 41 12.4311V5.51245C41 5.0707 40.8208 4.63836 40.5061 4.32587C40.1925 4.01338 39.7573 3.83392 39.3119 3.83392H32.8636C31.9312 3.83392 31.1755 4.58503 31.1755 5.51182C31.1755 6.43862 31.9312 7.19098 32.8636 7.19098H35.0917L23.1848 21.1752L23.1236 16.971C23.1129 16.2713 22.6669 15.6508 22.0052 15.4148C21.3441 15.1783 20.6028 15.3759 20.148 15.9099L4.55332 34.2263C3.95025 34.9334 4.03793 35.9933 4.75014 36.5925C5.46108 37.1918 6.52592 37.1039 7.12836 36.3961L19.8124 21.4983L19.8742 25.7031C19.8843 26.4021 20.3291 27.0233 20.992 27.2593C21.6532 27.4946 22.395 27.2969 22.8492 26.7636L37.6257 9.40977V12.4311C37.6257 13.3579 38.3814 14.1097 39.3125 14.1097H39.3119Z" fill="white" fill-opacity="0.1"/>
  </g>
  <defs>
    <clipPath id="clip0_0_112">
      <rect width="41" height="41" fill="white"/>
    </clipPath>
  </defs>
</svg>