<svg width="22" height="23" viewBox="0 0 22 23" fill="none" xmlns="http://www.w3.org/2000/svg">
  <g clip-path="url(#clip0_1_29059)">
    <path d="M18.7925 13.8143L11.9256 17.8197C11.8082 17.1526 11.5671 16.5134 11.2148 15.9349L9.88047 13.6473L13.0259 11.8125C13.2534 11.6798 13.4189 11.4622 13.486 11.2074C13.553 10.9527 13.5161 10.6818 13.3834 10.4543C13.2507 10.2268 13.033 10.0613 12.7783 9.99426C12.5236 9.92722 12.2527 9.96412 12.0252 10.0968L8.8797 11.9316L7.87893 10.2159C7.45187 9.48043 7.32342 8.60912 7.52007 7.78173C7.71672 6.95433 8.22348 6.23399 8.93577 5.76935C9.64806 5.3047 10.5115 5.13121 11.348 5.28466C12.1845 5.43811 12.9302 5.9068 13.4311 6.59402C13.5638 6.82154 13.7815 6.98702 14.0362 7.05406C14.2909 7.12109 14.5619 7.0842 14.7894 6.95149C15.0169 6.81878 15.1824 6.60112 15.2494 6.3464C15.3164 6.09169 15.2795 5.82077 15.1468 5.59325C13.8141 3.30851 10.5072 2.55096 8.06971 3.97272C6.85751 4.68163 5.976 5.84243 5.61859 7.20046C5.26118 8.55849 5.45705 10.0028 6.16323 11.2166L7.164 12.9323L6.30615 13.4327C6.07863 13.5654 5.91315 13.7831 5.84612 14.0378C5.77908 14.2925 5.81597 14.5634 5.94868 14.791C6.08139 15.0185 6.29905 15.184 6.55377 15.251C6.80849 15.318 7.0794 15.2811 7.30692 15.1484L8.16477 14.648L9.49913 16.9356C10.3608 18.4129 10.0784 18.8972 9.07015 19.4853C8.84263 19.618 8.67715 19.8357 8.61011 20.0904C8.54308 20.3451 8.57997 20.616 8.71268 20.8436C8.84539 21.0711 9.06305 21.2365 9.31776 21.3036C9.57248 21.3706 9.8434 21.3337 10.0709 21.201L19.7932 15.53C20.0207 15.3973 20.1862 15.1796 20.2533 14.9249C20.3203 14.6702 20.2834 14.3993 20.1507 14.1718C20.018 13.9442 19.8003 13.7788 19.5456 13.7117C19.2909 13.6447 19.02 13.6816 18.7925 13.8143Z" fill="white" fill-opacity="0.1"/>
  </g>
  <defs>
    <clipPath id="clip0_1_29059">
      <rect width="15.89" height="15.89" fill="white" transform="translate(0.0629883 8.64304) rotate(-30.255)"/>
    </clipPath>
  </defs>
</svg>