<svg width="40" height="17" viewBox="0 0 40 17" fill="none" xmlns="http://www.w3.org/2000/svg">
  <mask id="mask0_1_29065" style="mask-type:luminance" maskUnits="userSpaceOnUse" x="0" y="0" width="40" height="17">
    <path d="M0.029541 0.401615V3.64576H2.24782V12.8701H0.0899383V16.0751H7.80913V12.8701H5.59081V3.64576H7.74869V0.401615H0.029541ZM22.0002 0.440701V3.64576H24.2185V12.8701H22.0606V16.0751H27.5614V7.15726L30.8393 16.072L30.9059 16.0736L34.1249 7.15726V16.0751H39.686V12.8701H37.4677V3.64576H39.6256V0.440701H33.4261L30.8592 7.58916L28.2599 0.440701H22.0002Z" fill="white"/>
    <path d="M8.84241 0.441196V3.64626H11.0607V8.72745H19.5992V7.75311C19.5992 7.75311 20.3134 7.20426 20.541 6.68344L20.998 5.67287C20.998 5.67287 21.2102 5.10721 21.2102 4.60171L21.1188 3.59114C21.1188 3.59114 20.9754 2.76787 20.7254 2.523L19.8424 1.51087C19.8424 1.51087 18.7188 0.441196 17.2306 0.441196H8.84241ZM14.4035 3.64626H17.655V6.6168H14.4035V3.64626Z" fill="white"/>
    <path d="M8.84241 16.0752V12.8701H11.0607V7.78891H19.5992V8.76325C19.5992 8.76325 20.3134 9.31209 20.541 9.83291L20.998 10.8435C20.998 10.8435 21.2102 11.4091 21.2102 11.9146L21.1188 12.9252C21.1188 12.9252 20.9754 13.7485 20.7254 13.9934L19.8424 15.0055C19.8424 15.0055 18.7188 16.0752 17.2306 16.0752H8.84241ZM14.4035 12.8701H17.655V9.89956H14.4035V12.8701Z" fill="white"/>
  </mask>
  <g mask="url(#mask0_1_29065)">
    <path d="M0.029541 0.975483H40.876V3.05611H0.029541M0.029541 5.13674H38.6949V7.21777H0.029541V9.298H38.6949V11.3782H0.029541M0.029541 13.4593H40.876V15.5403H0.029541" fill="#B6B3EB"/>
    <path d="M0.029541 0.975483H40.876V3.05611H0.029541M0.029541 5.13674H38.6949V7.21777H0.029541V9.298H38.6949V11.3782H0.029541M0.029541 13.4593H40.876V15.5403H0.029541" stroke="#B6B3EB" stroke-width="12.5455"/>
  </g>
</svg>