<svg width="66" height="17" viewBox="0 0 66 17" fill="none" xmlns="http://www.w3.org/2000/svg">
  <path fill-rule="evenodd" clip-rule="evenodd" d="M21.3606 15.8502H23.8281V9.09428H25.1534C28.6263 9.09428 33.2422 8.8236 33.2422 4.9054C33.2422 0.941882 28.901 0.626568 25.4276 0.626568H18.4814V1.03187C20.9494 1.30217 21.3606 1.66284 21.3606 3.05864V15.8502ZM23.8281 3.0586C23.8281 1.70747 23.9651 1.5275 26.2961 1.5275C28.8549 1.5275 30.4084 2.65338 30.4084 4.9054C30.4084 7.8331 27.7583 8.23836 25.0621 8.23836H23.8281V3.0586ZM35.8928 3.32894C35.8928 1.48249 35.4813 1.34756 33.0135 1.03187V0.626568H38.7712L47.7738 13.0128H47.8194V0.626568H49.3278V15.8502H47.1339L37.446 2.60874H37.4004V15.8502H35.8928V3.32894ZM65.5049 15.4445C64.134 15.8052 62.8088 16.0751 60.1123 16.0751C54.72 16.0751 51.7952 12.3373 51.7952 7.74273C51.7952 3.64426 53.5319 0.401619 59.4268 0.401619C63.7681 0.401619 65.3221 2.20272 65.5049 3.73424H62.7172C62.5804 3.01367 62.0774 1.43717 59.2441 1.43717C56.1824 1.43717 54.5832 3.68961 54.5832 7.1575C54.5832 10.3555 55.4054 15.0846 61.7118 15.0846C63.4026 15.0846 65.185 14.589 65.5049 14.499V15.4445Z" fill="#B6B3EB"/>
  <path fill-rule="evenodd" clip-rule="evenodd" d="M12.4713 9.32092H10.6838C10.7582 9.1376 10.7214 8.88094 10.5722 8.58701L9.5666 6.93557L7.89073 4.03541C7.89073 4.03541 7.25773 2.86089 6.32678 2.16366C6.9226 2.38394 14.4454 6.71498 14.4454 6.71498C15.6745 7.44917 16.7542 9.28424 12.4713 9.32092ZM6.81069 13.9828C5.58155 14.6801 3.38428 14.68 5.50715 11.0099C5.87946 10.3854 6.40087 9.46818 6.40087 9.46818C6.55 9.65151 6.7735 9.7615 7.1086 9.7615H12.4713C12.4713 9.7615 13.8124 9.79815 14.8924 9.35819C14.4082 9.72484 6.81069 13.9828 6.81069 13.9828ZM4.24113 3.85178C4.24113 2.45728 5.35836 0.58494 7.51842 4.21901C7.89073 4.8799 8.41218 5.76077 8.41218 5.76077C8.18864 5.79715 8.00236 5.9444 7.81633 6.23803L6.84791 7.92643L5.13486 10.7893C5.13486 10.7893 4.42713 11.9272 4.27832 13.1023C4.2036 12.4411 4.24113 3.85178 4.24113 3.85178ZM8.52377 0.401615C4.12923 0.401615 0.591187 3.88874 0.591187 8.22005C0.591187 12.5511 4.12923 16.0751 8.52377 16.0751C12.9186 16.0751 16.4939 12.5511 16.4939 8.22005C16.4939 3.88874 12.9186 0.401615 8.52377 0.401615Z" fill="#B6B3EB"/>
  <path d="M14.9358 15.1939H15.0724C15.2151 15.1939 15.3056 15.117 15.3056 15.0004C15.3056 14.8692 15.2087 14.8116 15.0678 14.8098C15.0031 14.8098 14.9574 14.8161 14.9358 14.8221V15.1939ZM14.8025 14.7302C14.8699 14.7163 14.9665 14.7085 15.0587 14.7085C15.2013 14.7085 15.2931 14.7344 15.3578 14.792C15.4099 14.8371 15.4392 14.9068 15.4392 14.9852C15.4392 15.12 15.3532 15.2092 15.2443 15.2456V15.2501C15.3239 15.2771 15.3715 15.3498 15.3959 15.4555C15.4297 15.5976 15.4544 15.6958 15.4761 15.7352H15.3376C15.3206 15.7051 15.298 15.6186 15.2687 15.4919C15.2379 15.351 15.1824 15.2984 15.0614 15.2936H14.9358V15.7352H14.8025V14.7302Z" fill="#B6B3EB"/>
  <path d="M14.3765 15.2274C14.3774 15.6251 14.7039 15.9462 15.1068 15.9468C15.5105 15.9462 15.8358 15.6251 15.837 15.2274C15.8358 14.8303 15.5105 14.5095 15.1068 14.5087C14.7039 14.5096 14.3774 14.8304 14.3765 15.2274ZM14.2484 15.2274C14.2484 14.7607 14.6323 14.3822 15.1068 14.3822C15.5809 14.3822 15.966 14.7607 15.966 15.2274C15.966 15.6951 15.5809 16.0741 15.1068 16.0741C14.6323 16.0741 14.2484 15.6951 14.2484 15.2274Z" fill="#B6B3EB"/>
</svg>