<svg width="39" height="17" viewBox="0 0 39 17" fill="none" xmlns="http://www.w3.org/2000/svg">
  <path fill-rule="evenodd" clip-rule="evenodd" d="M38.2776 8.49996C38.2776 5.82144 36.9613 3.70792 34.4453 3.70792C31.9188 3.70792 30.3901 5.82144 30.3901 8.47904C30.3901 11.6284 32.1948 13.2188 34.785 13.2188C36.0483 13.2188 37.0037 12.9363 37.7256 12.5387V10.4461C37.0037 10.8018 36.1757 11.0215 35.1248 11.0215C34.095 11.0215 33.1821 10.6658 33.0653 9.43117H38.2564C38.2564 9.29515 38.2776 8.75107 38.2776 8.49996ZM33.0335 7.50598C33.0335 6.32367 33.7659 5.83191 34.4347 5.83191C35.0823 5.83191 35.7723 6.32367 35.7723 7.50598H33.0335Z" fill="#B6B3EB"/>
  <path fill-rule="evenodd" clip-rule="evenodd" d="M26.2924 3.70792C25.2521 3.70792 24.5833 4.18922 24.2117 4.52404L24.0737 3.87533H21.7383V16.0751L24.3922 15.5206L24.4028 12.5596C24.785 12.8316 25.3476 13.2188 26.2818 13.2188C28.182 13.2188 29.9124 11.7121 29.9124 8.39533C29.9018 5.36107 28.1502 3.70792 26.2924 3.70792ZM25.6555 10.9169C25.0292 10.9169 24.6576 10.6972 24.4028 10.4251L24.3922 6.54339C24.6682 6.23996 25.0504 6.0307 25.6555 6.0307C26.6215 6.0307 27.2903 7.09792 27.2903 8.46857C27.2903 9.87061 26.6321 10.9169 25.6555 10.9169Z" fill="#B6B3EB"/>
  <path fill-rule="evenodd" clip-rule="evenodd" d="M20.7509 0.401619L18.0863 0.956156V3.0906L20.7509 2.5256V0.401619Z" fill="#B6B3EB"/>
  <path fill-rule="evenodd" clip-rule="evenodd" d="M18.0863 3.88575H20.7509V13.0408H18.0863V3.88575Z" fill="#B6B3EB"/>
  <path fill-rule="evenodd" clip-rule="evenodd" d="M15.2308 4.66003L15.0609 3.88577H12.7679V13.0409H15.4219V6.83633C16.0482 6.03068 17.1098 6.17716 17.4389 6.29225V3.88577C17.0992 3.76021 15.8571 3.53003 15.2308 4.66003Z" fill="#B6B3EB"/>
  <path fill-rule="evenodd" clip-rule="evenodd" d="M9.92287 1.61516L7.33264 2.15924L7.32202 10.5401C7.32202 12.0886 8.50037 13.2291 10.0715 13.2291C10.942 13.2291 11.5789 13.0721 11.9292 12.8838V10.7598C11.5895 10.8958 9.91226 11.3771 9.91226 9.82859V6.11424H11.9292V3.88563H9.91226L9.92287 1.61516Z" fill="#B6B3EB"/>
  <path fill-rule="evenodd" clip-rule="evenodd" d="M2.74682 6.54339C2.74682 6.13533 3.08652 5.97839 3.64915 5.97839C4.45595 5.97839 5.47506 6.21904 6.28185 6.64802V4.18922C5.40075 3.84394 4.53026 3.70792 3.64915 3.70792C1.49416 3.70792 0.0610352 4.817 0.0610352 6.66894C0.0610352 9.55672 4.09501 9.09635 4.09501 10.3414C4.09501 10.8227 3.67038 10.9797 3.0759 10.9797C2.1948 10.9797 1.06953 10.6239 0.177808 10.1426V12.6328C1.16507 13.0514 2.16295 13.2292 3.0759 13.2292C5.28398 13.2292 6.80202 12.1515 6.80202 10.2787C6.79141 7.1607 2.74682 7.71524 2.74682 6.54339Z" fill="#B6B3EB"/>
</svg>