<svg width="81" height="17" viewBox="0 0 81 17" fill="none" xmlns="http://www.w3.org/2000/svg">
  <mask id="mask0_1_29077" style="mask-type:luminance" maskUnits="userSpaceOnUse" x="0" y="0" width="17" height="17">
    <path d="M10.1543 13.1777C11.1986 13.1651 12.1897 13.0144 13.0669 12.724C13.2875 12.6507 13.4984 12.5694 13.6978 12.4817C13.4537 13.069 13.0953 13.5589 12.6278 13.9231C11.7059 14.5921 10.6182 15.0511 9.43744 15.2262C9.73251 14.7231 9.97087 14.0122 10.1543 13.1777ZM5.23955 14.6048C5.21784 14.5869 5.19436 14.5703 5.16777 14.5581C4.75707 14.3607 4.59092 13.4581 4.80492 12.0777C5.59443 12.4275 6.45394 12.7048 7.35732 12.8948C8.04183 13.0389 8.72413 13.1279 9.39092 13.1624C9.06395 14.5633 8.64482 15.2991 8.36703 15.2991C8.34931 15.2991 8.33203 15.3021 8.3152 15.3048C7.21466 15.2973 6.17172 15.048 5.23955 14.6048ZM1.42622 10.1424C1.36301 9.90555 1.3231 9.66324 1.30704 9.41884C1.55426 9.76556 1.85509 10.1035 2.21352 10.4302C2.75493 10.9227 3.39735 11.3638 4.11332 11.7419C3.96711 12.548 3.92591 13.2786 4.01806 13.8672C2.78417 12.9476 1.86085 11.6459 1.42622 10.1424ZM10.6199 8.1848C10.6199 7.90009 10.6155 7.61407 10.6071 7.32936C11.5273 7.2691 12.3793 7.03329 13.0766 6.6381C13.7226 7.89747 14.0691 9.22627 14.0664 10.4804C14.066 10.8437 14.0341 11.1891 13.9756 11.5153C13.6433 11.7157 13.261 11.8895 12.8308 12.0328C12.0669 12.286 11.2065 12.424 10.2943 12.4472C10.514 11.1516 10.6199 9.64722 10.6199 8.1848ZM7.51239 12.1825C6.59616 11.9891 5.73045 11.7022 4.94669 11.3393C5.2041 10.1979 5.68348 8.81492 6.44287 7.27958C6.55319 7.05731 6.66572 6.83854 6.78047 6.62457C7.31169 6.8595 7.88987 7.04596 8.49596 7.17347C8.95629 7.27084 9.41706 7.32368 9.86764 7.33896C9.87606 7.61232 9.8796 7.89398 9.8796 8.1848C9.8796 9.90137 9.74048 11.3262 9.53934 12.4397C8.87831 12.4114 8.19734 12.3262 7.51239 12.1825ZM2.71594 9.89525C2.0877 9.32321 1.65572 8.71711 1.43553 8.11537C1.61009 7.44115 1.94769 6.7643 2.44435 6.11584C2.91531 5.50101 3.50146 4.9473 4.17357 4.47133C4.36763 4.81674 4.63921 5.15385 4.98524 5.4735C5.31398 5.77698 5.69722 6.05209 6.1221 6.2927C6.00417 6.51328 5.88985 6.73572 5.77918 6.95993C5.12302 8.28524 4.58738 9.70748 4.27281 10.9974C3.68843 10.673 3.16342 10.3035 2.71594 9.89525ZM10.1175 3.12113C10.9584 3.73815 11.7293 4.53421 12.374 5.4652C12.4963 5.64161 12.6114 5.82109 12.7209 6.00231C12.1303 6.33898 11.3824 6.54029 10.5765 6.59662C10.5083 5.33856 10.3572 4.1281 10.1175 3.12113ZM8.65103 6.46081C8.11582 6.34859 7.6072 6.18658 7.13846 5.98353C7.82873 4.79359 8.58324 3.75911 9.32801 2.99013C9.56061 3.8923 9.75555 5.10538 9.83796 6.60928C9.44586 6.59313 9.04711 6.54466 8.65103 6.46081ZM5.49076 4.94163C5.18461 4.65954 4.95245 4.36522 4.79605 4.06959C5.48898 3.65868 6.2559 3.32375 7.07289 3.0814C7.55891 2.93729 8.05069 2.83075 8.54115 2.75695C7.83316 3.53903 7.12605 4.53246 6.47787 5.65471C6.10748 5.4438 5.77564 5.20494 5.49076 4.94163ZM3.90021 2.61896C3.89002 2.65564 3.87939 2.69319 3.87097 2.73162C3.79609 3.07528 3.80495 3.42768 3.89268 3.77702C3.09696 4.31806 2.40492 4.95778 1.85376 5.67655C1.68585 5.89532 1.53566 6.1189 1.39964 6.34379C1.80946 4.85124 2.70088 3.55257 3.90021 2.61896ZM4.59402 2.88358C4.67599 2.50542 4.90682 2.16744 5.26347 1.88797C6.12698 1.63382 7.13137 1.69496 8.18715 2.07574C7.74277 2.15172 7.2984 2.25303 6.86022 2.38359C6.04457 2.62464 5.27455 2.95476 4.56921 3.35563C4.55326 3.19624 4.5608 3.03817 4.59402 2.88358ZM10.5942 1.92334C10.8481 1.76133 11.082 1.65042 11.2774 1.60457C11.6483 1.75085 12.016 1.93819 12.3647 2.17486C11.8051 2.03687 11.2101 1.95303 10.5942 1.92334ZM9.34838 1.143C9.64833 1.17619 9.96865 1.22684 10.2978 1.30239C10.0918 1.41156 9.87827 1.5478 9.66074 1.71155C9.56415 1.49627 9.46003 1.30676 9.34838 1.143ZM8.54691 1.42902C8.21241 1.30283 7.88189 1.20501 7.55581 1.13514C7.81721 1.10632 8.08171 1.08973 8.35108 1.08973C8.47691 1.09104 8.63153 1.24038 8.79325 1.52902C8.71128 1.49452 8.62932 1.46046 8.54691 1.42902ZM0.409424 8.19746C0.409424 8.94243 0.517971 9.66251 0.716014 10.3459C0.727976 10.3917 0.739496 10.4376 0.75323 10.4835C0.755889 10.4917 0.759876 10.4996 0.762977 10.5088C1.76604 13.7057 4.79295 16.0344 8.36127 16.0344C10.0121 16.0344 11.5464 15.5358 12.8188 14.6843C12.8316 14.6768 12.8445 14.6707 12.856 14.6629C12.9313 14.6122 13.0044 14.5589 13.0753 14.503C14.5387 13.438 15.6189 11.8909 16.0743 10.1009C16.1 10.0188 16.1222 9.93499 16.1408 9.85027C16.1452 9.82975 16.1465 9.81054 16.1474 9.79045C16.256 9.27561 16.3127 8.74287 16.3127 8.1979C16.3127 7.14028 16.1027 6.11366 15.6875 5.14774C15.6078 4.96215 15.3911 4.87525 15.2028 4.95429C15.0145 5.03202 14.9268 5.24642 15.0061 5.43157C15.3823 6.30711 15.5728 7.23809 15.5728 8.1979C15.5728 8.7861 15.4988 9.35727 15.361 9.90442C15.2516 10.2494 15.0597 10.5686 14.7943 10.8586C14.801 10.735 14.805 10.6101 14.8054 10.4821C14.8085 9.08391 14.416 7.60708 13.6885 6.2189C14.2219 5.76738 14.5626 5.20931 14.6792 4.5853C14.7164 4.38749 14.5835 4.19753 14.3828 4.16085C14.1816 4.12374 13.9889 4.25474 13.9517 4.45299C13.8746 4.86565 13.657 5.24424 13.3168 5.56563C13.2109 5.39315 13.101 5.22241 12.9845 5.05429C12.3354 4.11631 11.5641 3.30497 10.7201 2.65739C11.8343 2.72987 12.864 2.99581 13.6934 3.45257C13.8232 3.52549 13.996 3.52331 14.1178 3.42331C14.2747 3.29449 14.2959 3.06393 14.1643 2.90935C12.973 1.26702 10.9123 0.36092 8.36039 0.36092C3.97686 0.360483 0.409424 3.87614 0.409424 8.19746Z" fill="white"/>
  </mask>
  <g mask="url(#mask0_1_29077)">
    <path d="M0.409424 0.360027H16.3127V16.034H0.409424V0.360027Z" fill="#B6B3EB"/>
  </g>
  <path d="M18.0631 3.85473H22.0781V4.66653H20.6036V8.73807H19.5389V4.66653H18.0636L18.0631 3.85473ZM22.6416 8.73771V3.85437H23.7059V5.78188H25.5795V3.85444H26.6566V8.73771H25.5932V6.59323H23.7058V8.73771H22.6416ZM27.5235 3.85473H30.8456V4.66653H28.5882V5.80974H30.702V6.6211H28.5882V7.92679H30.9213V8.73814H27.524L27.5235 3.85473ZM36.1306 3.85473H37.3308L38.1956 7.5277H38.2091L39.0057 3.85473H40.0211L38.7585 8.73807H37.5786L36.6868 5.0176H36.6734L35.7115 8.73807H34.5046L33.2969 3.85473H34.3952L35.1564 7.5277H35.1715L36.1306 3.85473ZM40.3828 6.29659C40.3828 4.856 41.1236 3.75251 42.7633 3.75251C44.4026 3.75251 45.1447 4.85556 45.1447 6.29659C45.1447 7.73761 44.4026 8.83892 42.7633 8.83892C41.1226 8.83892 40.3828 7.7371 40.3828 6.29659ZM41.5139 6.29659C41.5139 7.13413 41.7133 8.08126 42.7628 8.08126C43.8129 8.08126 44.0122 7.13413 44.0122 6.29659C44.0122 5.45729 43.8129 4.50973 42.7628 4.50973C41.7132 4.50973 41.5139 5.4578 41.5139 6.29659ZM46.9087 8.73771H45.8445V3.85437H47.9508C48.8023 3.86099 49.6738 4.13123 49.6738 5.12637C49.6738 5.76172 49.2552 6.18184 48.6445 6.30976V6.323C49.4615 6.41075 49.4615 6.90421 49.5506 7.58103C49.5993 7.89237 49.6397 8.46747 49.8386 8.73691H48.6649C48.5763 8.30456 48.5276 7.86487 48.4802 7.42467C48.4522 7.15473 48.3833 6.7827 48.034 6.7696H46.9091V8.73683L46.9087 8.73771ZM46.9087 5.95781H47.7998C48.2676 5.94959 48.5414 5.72112 48.5414 5.28754C48.5414 4.8552 48.2677 4.6722 47.7997 4.66573H46.9087V5.95781ZM50.4892 8.73771V3.85437H51.5534V7.92635H53.7014V8.73771H50.4892ZM54.2763 3.85473H55.9652C57.5084 3.84157 58.4694 4.59842 58.4694 6.29666C58.4694 7.99402 57.5084 8.75124 55.9653 8.73778H54.2763V3.85473ZM55.3396 7.92628H55.8886C57.1521 7.93952 57.3378 7.07352 57.3378 6.29659C57.3378 5.51841 57.1522 4.65292 55.8887 4.66645H55.3396V7.92628ZM61.164 8.73771V3.85437H63.024C63.9092 3.80024 64.8152 4.16615 64.8152 5.11946C64.8152 5.65353 64.4369 6.02606 63.9433 6.18759V6.20083C64.5684 6.32969 65.0341 6.75585 65.0341 7.47196C65.0341 8.43924 63.798 8.7917 63.0372 8.73705L61.164 8.73771ZM63.0581 7.92592C63.5592 7.92592 63.9021 7.8378 63.9021 7.2766C63.9021 6.71547 63.5596 6.62728 63.0581 6.62728H62.2269V7.92643L63.0581 7.92592ZM63.0581 5.81636C63.5042 5.81636 63.7505 5.63344 63.7505 5.24126C63.7505 4.84828 63.5038 4.6666 63.0581 4.6666H62.2269V5.8168L63.0581 5.81636ZM65.3645 8.73771L67.1562 3.85437H68.4189L70.1406 8.73771H69.0711L68.714 7.70276H66.7513L66.38 8.73771H65.3645ZM68.446 6.89148L67.7668 4.80812H67.7535L67.0263 6.89148H68.446ZM73.6548 8.73771L71.6988 4.67926L71.6855 4.6925V8.73698H70.6907V3.85364H72.2684L74.1568 7.69556L74.1701 7.68071V3.8527H75.1653V8.7364L73.6548 8.73771ZM77.095 5.9648H77.1084L78.7556 3.85437H79.9975L78.1788 6.03908L80.1558 8.73778H78.8314L77.1088 6.24864H77.0954V8.73778H76.032V3.8543H77.0954L77.095 5.9648Z" fill="#B6B3EB"/>
</svg>